# xmcd
# Track frame offsets:
# 182
# 15890
# 32350
# 43745
# 57482
# 71615
# 84875
# 96307
# 108140
# 121452
# 136192
# 148792
# 162140
# 175522
# 188597
# 201647
# 213237
# 225790
# 238397
# 249860
# 271927
# 291892
# 311557
#
# Disc length: 4384 seconds
# Revision: 0
# Processed by: cddbd v1.4PL0 Copyright (c) Steve Scherf et al.
# Submitted via: VisiTrax 2.9.5.180 - For more info visit www.synapsa.com
#
DISCID=34111e17
DTITLE=Jackson, Milt - Milt Jackson: Early Modern
DYEAR=1949
DGENRE=Blues
TTITLE0=MILT JACKSON - Softly as in a Morning Sunrise
TTITLE1=MILT JACKSON - Love me, Pretty Baby
TTITLE2=MILT JACKSON - Heart and Soul
TTITLE3=MILT JACKSON - True Blues
TTITLE4=MILT JACKSON - Milt Meets Sid
TTITLE5=MILT JACKSON - D and E
TTITLE6=MILT JACKSON - Yesterday
TTITLE7=MILT JACKSON - Between The Devil And The Deep Blue Sea
TTITLE8=MILT JACKSON - Autumn Breeze
TTITLE9=MILT JACKSON - Moving Nicely
TTITLE10=MILT JACKSON - Bluesology
TTITLE11=MILT JACKSON - 'Round Midnight
TTITLE12=MILT JACKSON - You Go To My Head
TTITLE13=MILT JACKSON - Hearing Bells (take 3)
TTITLE14=MILT JACKSON - Hearing Bells (master-take 5)
TTITLE15=MILT JACKSON - Junior
TTITLE16=MILT JACKSON - Bluesology (alternate-take 2)
TTITLE17=MILT JACKSON - Bluesology (master-take 3)
TTITLE18=MILT JACKSON - Bubu
TTITLE19=MILT JACKSON - Sonor
TTITLE20=MILT JACKSON - Strollin'
TTITLE21=MILT JACKSON - Blues Mood
TTITLE22=MILT JACKSON - Skoot
EXTD=
EXTT0=
EXTT1=
EXTT2=
EXTT3=
EXTT4=
EXTT5=
EXTT6=
EXTT7=
EXTT8=
EXTT9=
EXTT10=
EXTT11=
EXTT12=
EXTT13=
EXTT14=
EXTT15=
EXTT16=
EXTT17=
EXTT18=
EXTT19=
EXTT20=
EXTT21=
EXTT22=
PLAYORDER=
